<?xml version="1.0" encoding="UTF-8"?><svg id="Layer_1" xmlns="http://www.w3.org/2000/svg" viewBox="0 0 476.98 256.27"><g><g><path d="M224.64,113.5s7.55,15.21,12.85,22.44c16.23,22.12,11.83,49.14-4.36,69.35-13.33,16.64-32.12,23.8-54.17,25.2-1.92,.12-3.92-.61-5.88-.95-.1-.51-.21-1.03-.31-1.54,1.69-.75,3.31-1.69,5.08-2.2,8.35-2.41,15.66-6.11,17.89-14.37,2.3-8.54-1.06-15.72-7.59-22.23-8.24-8.22-17.27-16.18-23.48-25.58-13.26-20.07-18.71-42.65-16.07-65.62,4.62-40.26,26.14-68.43,66.31-87.84,31.88-15.4,72.87-13.02,103.23,5.29-22.36,.75-41.01,7.39-56.92,19.72-19.31,14.98-31.19,33.42-35.47,56.01-.43,2.25-.6,4.56-1.19,6.77-1.52,5.61-1.27,10.73,.08,15.55m-6.64,16.97c-4.11-1.97-8.1-4.2-12.36-5.86-14.08-5.48-28.39-3.3-36.54,5.56-5.79,6.29-9.63,21.51,.13,33.16,6.22,7.43,13.44,14.19,19.71,21.59,4.08,4.81,8.33,9.9,10.57,15.49,3.45,8.62,1,16.69-7.33,22.95,1.95-.15,3.4-.53,4.78-1.06,18.65-7.27,31.37-19.58,36.58-37.32,5-17.03,4.02-33.57-9.43-47.95-2.1-2.25-4.2-4.5-6.3-6.76,2.92,2.21,6.29,4.07,8.7,6.67,16.91,18.28,14.64,48.28-1.51,68.06-8.19,10.03-19.55,16.47-32.55,20.72,1.01,.17,1.98,.22,2.89,.03,1.51-.32,3-.75,4.48-1.2,18.41-5.67,31.51-16.78,39.11-32.73,8.15-17.11,9.59-34.65-1.5-51.32-7.93-11.92-16.48-23.6-25.85-34.64-14.13-16.63-36.13-19.69-55.96-8.56-1.56,.88-2.96,3.23-2.96,4.91-.02,6.88-.12,13.84,1.04,20.61,1.48,8.69,4.14,17.22,6.3,25.83,1.74-.5,1.88-.63,1.89-.77,.07-1.23,.13-2.47,.17-3.7,.31-10.59,5.85-17.85,16.56-22.25,12.94-5.32,34.23,.8,39.41,8.54ZM306.8,13.22c-15.21-13.97-64.09-13.66-93.16,.59-31.29,15.34-63.06,54.59-58.68,76.39,10.12-6.29,22.67-5.81,34.42-3.95,11.87,1.87,18.59,7.45,25.26,16.8,10-48.3,37.77-79.56,92.17-89.83Zm-87.05,95.25c.63-.26,1.26-.53,1.88-.79-.71-18.73,7.1-34.75,15.8-51.34-10.65,14.86-19.06,29.68-20.29,47.47-.1,1.49,1.69,3.11,2.61,4.66Z"/><path d="M214.22,102.47c-6.59-9.07-13.22-14.38-24.84-16.21-11.76-1.86-24.3-2.34-34.42,3.95-4.37-21.8,27.39-61.05,58.68-76.39,29.07-14.25,77.95-14.56,93.16-.6-54.4,10.27-82.17,41.54-92.17,89.83" style="fill:#ebe311;"/><path d="M214.64,103.05c-.14-.19-.28-.39-.42-.58" style="fill:#fff;"/><path d="M217.81,130.27c2.1,2.25,4.19,4.51,6.29,6.76,13.45,14.37,14.43,30.92,9.43,47.95-5.2,17.74-17.93,30.05-36.58,37.32-1.37,.54-2.83,.91-4.78,1.06,8.33-6.26,10.78-14.32,7.33-22.95-2.24-5.59-6.49-10.68-10.57-15.49-6.27-7.4-13.49-14.16-19.71-21.59-9.75-11.65-5.92-26.87-.13-33.16,8.15-8.85,22.46-11.04,36.54-5.56,4.26,1.66,8.25,3.89,12.36,5.86l-.19-.19Z" style="fill:#363436;"/><path d="M218,130.47c-5.18-7.74-26.47-13.86-39.41-8.54-10.72,4.4-16.25,11.66-16.56,22.25-.04,1.23-.1,2.47-.17,3.7,0,.14-.15,.27-1.89,.77-2.15-8.6-4.81-17.13-6.3-25.83-.24-1.42-.4-3.14-.4-3.14-.15-1.27-.28-2.31-.31-2.61-.16-1.38-.38-3.35-.41-3.71,0,0-.34-3.76,.08-11.15,0,0,0,0,0,0,0,0,.08-1.41,.82-2.71,.71-1.25,1.8-1.97,2.14-2.2,7.71-5.11,17.88-6.17,17.88-6.17,3.92-.41,11.16-1.09,19.58,1.84,3.11,1.08,5.51,2.35,6.93,3.17,0,0,6.34,3.65,11.57,9.72,.8,.93,1.77,2.1,1.77,2.1,.83,1.01,1.44,1.77,1.64,2.03,8.98,11.25,16.61,19.91,22.44,30.51,3.68,6.68,5.88,10.64,7.11,16.83,2.29,11.43-.16,23.05-5.61,34.49-7.6,15.95-20.7,27.06-39.11,32.73-1.47,.45-2.96,.88-4.48,1.2-.91,.19-1.88,.14-2.89-.03,13-4.25,24.36-10.69,32.55-20.72,16.15-19.77,18.42-49.78,1.51-68.06-2.4-2.6-5.77-4.46-8.6-6.57,0,0-12.04-12.62,.1,.1Zm-55.84-24.02c1.18,3.1,3.38,4.18,7.15,2.76,3.89-1.46,7.02-6.39,5.2-8.78-2.92-3.82-6.42-2.56-8.06-1.74,.6,1.28,1.99,3.24,1.49,3.81-1.4,1.56-3.59,2.54-5.77,3.94Z" style="fill:#fff;"/><path d="M221.63,107.67c-.63,.26-1.26,.53-1.88,.79" style="fill:#fff;"/><path d="M219.75,108.47s-2.71-3.17-2.61-4.66c1.23-17.78,9.64-32.61,20.29-47.47-8.7,16.58-16.5,32.61-15.8,51.34" style="fill:#cad32b;"/></g><g><path d="M23.34,94.23c-1.62-2.42-1.94-4.54-1.96-6.77-.06-6.45-.82-12.86-.77-19.35,.15-16.81-.39-33.63-.6-50.44-.02-1.68-.07-3.15-2.06-3.97-5.33-2.18-15.56,2.46-16.88,7.57-2.23,8.63-.4,17.23,.27,25.81,1.54,19.82,3.3,39.63,5.21,59.43,.64,6.66,1.94,13.28,3.12,19.89,.73,4.08,3.66,5.95,8.22,6.1,4.58,.15,7.5-1.45,8.47-5.64,.48-2.06,.7-4.26,1.69-6.12,7.42-13.91,10.19-29.19,15.92-43.6,.58-1.47,.93-3.46,2.9-3.66,2.4-.24,2.95,1.82,3.72,3.46,4.41,9.4,8.93,18.75,12.72,28.38,1.31,3.33,3.02,7.56,7.64,7.8,4.42,.23,6.74-2.85,8.63-6.62,2.95-5.88,7-11.32,10.64-16.91,.85-1.31,1.51-3.15,3.8-2.69,1.78,.36,2.03,1.95,2.56,3.28,3.5,8.73,6.9,17.51,10.67,26.15,1.12,2.56,2.33,6.39,6.43,5.62,4.11-.77,7.44-3.33,7.53-7.71,.04-1.73-.47-3.49-.94-5.19-1.07-3.94-3.52-7.57-4.45-11.38-2.49-10.17-6.98-19.79-9.48-29.94-.99-4.01-2.83-8.78-7.58-9.19-4.58-.39-6.59,4.47-8.67,7.75-4.13,6.53-7.72,13.33-11.88,19.85-1.02,1.61-1.6,4.65-4.57,4.09-2.54-.48-2.97-3.19-3.59-5.15-3.53-11.09-5.76-22.47-11.6-33.02-2.26-4.08-4.61-6.34-9.14-6.75-4.53-.41-7.78,1.86-10.17,5.17-3.54,4.9-5.89,10.25-7.52,15.9-2.65,9.15-5.43,18.28-8.29,27.86Z" style="fill:none;"/><path d="M141.39,109.54c.37-8.57-2.53-16.64-4.73-24.8-.78-2.89-2.64-5.08-6.78-3.92-2.44,.68-6.07-.01-5.24,3.89,2.38,11.15,3.9,22.34,3.21,33.72-.02,.35,.08,.7,.14,1.05,.41,2.37,1.63,3.06,4.47,2.64,7.73-1.14,9.06-2.79,8.94-12.58Z" style="fill:none;"/><path d="M126.44,72.75c3.19,.27,5.66-.24,5.4-4.12-.24-3.58-1.1-6.11-6.02-5.97-3.81,.11-6.13,.55-6.04,4.89,.09,4.41,2.27,5.59,6.65,5.19Z" style="fill:none;"/><path d="M23.34,94.23c2.86-9.58,5.64-18.7,8.29-27.86,1.64-5.65,3.99-11,7.52-15.9,2.39-3.3,5.64-5.57,10.17-5.17,4.53,.41,6.88,2.67,9.14,6.75,5.84,10.55,8.07,21.93,11.6,33.02,.62,1.96,1.05,4.67,3.59,5.15,2.97,.56,3.55-2.48,4.57-4.09,4.15-6.52,7.74-13.32,11.88-19.85,2.08-3.28,4.08-8.14,8.67-7.75,4.74,.4,6.59,5.18,7.58,9.19,2.5,10.15,6.98,19.77,9.48,29.94,.94,3.82,3.38,7.45,4.45,11.38,.46,1.7,.97,3.46,.94,5.19-.09,4.39-3.42,6.94-7.53,7.71-4.1,.77-5.31-3.06-6.43-5.62-3.77-8.64-7.17-17.41-10.67-26.15-.53-1.33-.78-2.92-2.56-3.28-2.29-.46-2.95,1.38-3.8,2.69-3.65,5.59-7.69,11.03-10.64,16.91-1.89,3.77-4.22,6.85-8.63,6.62-4.61-.24-6.33-4.47-7.64-7.8-3.79-9.63-8.31-18.98-12.72-28.38-.77-1.65-1.32-3.7-3.72-3.46-1.97,.19-2.31,2.19-2.9,3.66-5.73,14.4-8.5,29.68-15.92,43.6-.99,1.86-1.22,4.06-1.69,6.12-.97,4.19-3.89,5.79-8.47,5.64-4.56-.15-7.49-2.02-8.22-6.1-1.18-6.61-2.47-13.23-3.12-19.89-1.92-19.8-3.67-39.61-5.21-59.43-.67-8.58-2.5-17.18-.27-25.81,1.32-5.11,11.55-9.75,16.88-7.57,1.99,.81,2.04,2.29,2.06,3.97,.21,16.81,.75,33.63,.6,50.44-.06,6.49,.71,12.9,.77,19.35,.02,2.23,.34,4.36,1.96,6.77Z" style="fill:#dc1f26;"/><path d="M141.39,109.54c.12,9.79-1.21,11.44-8.94,12.58-2.83,.42-4.06-.27-4.47-2.64-.06-.35-.16-.7-.14-1.05,.7-11.38-.83-22.58-3.21-33.72-.83-3.91,2.8-3.21,5.24-3.89,4.14-1.16,6,1.04,6.78,3.92,2.21,8.16,5.1,16.23,4.73,24.8Z" style="fill:#dc1f26;"/><path d="M126.44,72.75c-4.39,.41-6.56-.78-6.65-5.19-.09-4.34,2.23-4.78,6.04-4.89,4.92-.15,5.78,2.39,6.02,5.97,.26,3.88-2.22,4.38-5.4,4.12Z" style="fill:#dc1f26;"/></g><g><path d="M238.06,67.61c0-.26,.04-.66,.24-1.1,.34-.74,.93-1.16,1.2-1.32,.37-.21,.89-.46,1.55-.66,.1-.03,1.12-.46,2.22-.38,4.04,.3,6.6,1.49,6.43,5.73-.12,2.92-.97,4.9-4.57,4.87-3.59-.03-7.46,.18-6.82-4.85,.02-.18-.31-.69-.34-1.4-.02-.38,.03-.69,.07-.89Z" style="fill:#dc1f26;"/><path d="M314.97,90.88c-3.32-5.07-3.35-5.08-1.75-9.84,.65-1.92-.02-3.82-1.51-4.74-3.65-2.27-10.37,1.17-10.96,5.29-1.56,10.92,2.03,20.89,7.02,30.56,.71,1.38,1.96,2.66,3.27,3.65,4.35,3.27,7.59,2.13,8.53-2.99,.41-2.23,.37-4.53,.64-6.79,.74-6.29,1.2-12.63,5.77-17.96,1.99-2.32,4.29-3.71,7.5-3.05,2.88,.59,4.31,2.43,5.11,5.1,2.15,7.12,4.59,14.18,7.07,21.21,.87,2.46,1.64,5.43,5.52,5.24,7.54-.38,12.53-5.9,10.28-12.13-3.2-8.86-8.01-16.96-14.22-24.61-7.97-9.81-24.45-4.56-27.93,4.51-.93,2.43-1.61,5.04-4.33,6.56Z" style="fill:none;"/><path d="M364.25,91.96c-1.97,9.92,4.04,16.88,14.35,21.08,7.35,3,15.07,2.95,22.53-.41,2.1-.95,3.8-2.58,3.45-4.37-.37-1.85-2.98-.91-4.61-1.1-1.54-.18-3.12-.02-4.68-.12-7.91-.49-14.15-3.35-18.01-9.94-1.31-2.23-1.67-4.58-.67-6.59,1.23-2.46,3.76-.5,5.73-.44,2.15,.06,4.3,.28,6.44,.2,7.4-.27,10.54-3.09,11.09-9.75,.1-1.22,.39-2.42,.56-3.64,.83-5.86-4.55-14.36-10.09-15.94-7.24-2.06-15.27,1.4-19.33,7.55-4.62,6.99-6.9,14.37-6.74,23.45Z" style="fill:none;"/><path d="M298.7,95.76c.33-5.7-1.15-9.62-2.81-13.34-2.89-6.48-8.18-11.19-16.22-11.13-7.45,.05-14.48,2.49-17.92,9.16-5.3,10.26-5.05,20.75,.15,31.03,3.69,7.29,11.51,10.11,20.02,7.7,10.98-3.11,16.31-11.17,16.78-23.42Z" style="fill:none;"/><path d="M428.97,100.02c-.35-3.74-1.13-9.2-4.21-13.98-4.72-7.33-7.87-15.29-11.62-22.99-2.99-6.14-3.26-12.27,3.54-17.21,3.26-2.37,2.76-4.78-1.4-6.28-5.42-1.96-10.85-.14-12.61,5.09-3.43,10.14-3.49,20.36,3.41,29.41,3.87,5.08,6.45,10.74,10.74,15.74,5.59,6.53,.79,21.66-6.95,26.24-1.89,1.12-3.81,2.31-5.79,3.36-1.03,.55-3.19,.42-2.63,2.2,.43,1.38,2.16,1.23,3.51,1.39,9.8,1.17,24.12-9.23,24.01-22.97Z" style="fill:none;"/><path d="M314.97,90.88c2.73-1.52,3.4-4.13,4.33-6.56,3.48-9.08,19.97-14.32,27.93-4.51,6.21,7.65,11.02,15.75,14.22,24.61,2.25,6.24-2.74,11.75-10.28,12.13-3.88,.2-4.65-2.77-5.52-5.24-2.48-7.04-4.92-14.09-7.07-21.21-.8-2.66-2.23-4.51-5.11-5.1-3.21-.66-5.51,.73-7.5,3.05-4.57,5.33-5.04,11.67-5.77,17.96-.26,2.26-.23,4.56-.64,6.79-.94,5.11-4.18,6.25-8.53,2.99-1.31-.99-2.55-2.27-3.27-3.65-4.99-9.67-8.58-19.64-7.02-30.56,.59-4.12,7.31-7.55,10.96-5.29,1.49,.92,2.15,2.82,1.51,4.74-1.6,4.76-1.57,4.77,1.75,9.84Z" style="fill:#dc1f26;"/><path d="M364.25,91.96c-.16-9.08,2.12-16.47,6.74-23.45,4.06-6.14,12.09-9.6,19.33-7.55,5.54,1.57,10.93,10.07,10.09,15.94-.17,1.22-.46,2.42-.56,3.64-.55,6.66-3.69,9.48-11.09,9.75-2.14,.08-4.29-.14-6.44-.2-1.97-.06-4.5-2.01-5.73,.44-1,2.01-.64,4.36,.67,6.59,3.87,6.59,10.11,9.46,18.01,9.94,1.56,.1,3.14-.06,4.68,.12,1.63,.19,4.25-.74,4.61,1.1,.35,1.79-1.35,3.42-3.45,4.37-7.46,3.36-15.18,3.4-22.53,.41-10.31-4.2-16.32-11.17-14.35-21.08Zm25.8-14.21c.05-4.7-2.79-9.42-5.64-9.55-2.7-.12-8.38,6.72-8.32,10.1,.08,4.5,4.09,4,7.13,4.21,3.69,.25,7.27-.21,6.83-4.76Z" style="fill:#dc1f26;"/><path d="M298.7,95.76c-.47,12.25-5.79,20.31-16.78,23.42-8.51,2.41-16.33-.41-20.02-7.7-5.2-10.28-5.45-20.76-.15-31.03,3.44-6.68,10.47-9.11,17.92-9.16,8.04-.05,13.33,4.65,16.22,11.13,1.66,3.72,3.13,7.64,2.81,13.34Zm-8.53,1.32c-.39-3.13-.63-5.94-1.1-8.71-.8-4.69-5.47-9-9.43-8.65-5.84,.53-7.8,4.34-8.03,8.85-.3,5.88-1.55,11.81-.26,17.65,.83,3.76,3.65,6.79,7.75,7.84,3.55,.9,5.13-1.95,7.06-4.29,3.28-3.98,2.8-8.66,4.02-12.69Z" style="fill:#dc1f26;"/><path d="M428.97,100.02c.11,13.74-14.21,24.14-24.01,22.97-1.35-.16-3.08,0-3.51-1.39-.56-1.78,1.6-1.66,2.63-2.2,1.98-1.05,3.9-2.24,5.79-3.36,7.74-4.59,12.54-19.71,6.95-26.24-4.28-5-6.86-10.66-10.74-15.74-6.9-9.05-6.84-19.26-3.41-29.41,1.77-5.23,7.19-7.05,12.61-5.09,4.16,1.5,4.66,3.92,1.4,6.28-6.8,4.93-6.52,11.07-3.54,17.21,3.75,7.7,6.9,15.66,11.62,22.99,3.08,4.78,3.85,10.23,4.21,13.98Z" style="fill:#dc1f26;"/><path d="M254.09,108.9c-.02,8.98-1.73,10.86-9.2,11.63-4.07,.42-5.36-1.35-5.11-4.58,.68-8.76-.15-17.37-1.73-26.04-.6-3.31-4.15-8.32,2.9-10.67,4.48-1.49,6.51-.06,7.85,3.57,3.24,8.76,3.87,17.92,5.3,26.09Z" style="fill:#dc1f26;"/></g><g><path d="M311.05,213.33c-.07,0-.15,0-.22,.01,0,.71-.06,1.42,.01,2.12,.3,3.07-1.42,7.4,2.3,8.72,5.17,1.84,11.14-.49,16.72,.79,.48,.11,1.35-1.15,2.03-1.79,4.85-4.58,9.8-9.08,14.53-13.75,7.19-7.12,10.68-14.98,7.09-24.86-3.42-9.41-12.93-15.05-23.55-12.79-2.99,.64-5.97,1.81-8.6,3.26-3.74,2.07-4.79,.89-5.79-2.49-3.3-11.15-4.53-22.48-4.56-33.97,0-2.33-.01-4.73-3.4-5.37-3.86-.72-4.22,2.48-5.66,4.29-.59,.73-.32,2.05-.38,3.1-.53,10.99,1.68,21.75,2.97,32.61,.64,5.4,3.9,10.95,.18,16.45-.69,1.02-.12,1.94,1.02,1.79,4.34-.56,3.56,2.71,3.8,4.49,.78,5.77,1.05,11.59,1.52,17.4Z" style="fill:none;"/><path d="M249.91,204.01c-.23,2.36,.8,4.5,1.53,6.68,2.47,7.29,8.18,9.22,15.59,5.31,4.97-2.62,8.89-6.28,12.34-10.37,3.09-3.66,5.29-3.62,7.46,.58,2.38,4.6,4.28,9.41,6.55,14.06,1.35,2.77,2.05,6.56,7.18,4.96,5.23-1.63,7.63-4.98,5.54-9.38-4.93-10.32-10.16-20.55-15.79-30.58-2.8-4.99-5.86-4.98-9.44-.44-3.37,4.27-6.33,8.82-9.39,13.29-1.09,1.59-2.38,3.22-4.52,2.65-2.32-.61-1.82-2.78-1.88-4.53-.29-9.16,2.97-16.32,12.77-20.56,3.32-1.44,7.87-4.37,5.47-8.05-2.17-3.32-6.79-.89-9.96,.6-15.97,7.51-21.92,20.48-23.46,35.77Z" style="fill:none;"/><path d="M357.47,204.08c-.79,11.76,6.8,21.02,16.48,21.73,9.09,.66,22.72-7.64,23.08-18.14,.17-5.07-.08-10.03-.38-15.03-.49-8.03-7.05-14.21-16.5-15.64-6.19-.93-17.76,4.93-20.32,10.15-2.83,5.79-4.11,11.69-2.36,16.93Z" style="fill:none;"/><path d="M407.43,193.06c-3.44-.2-6.57,3.1-4.93,5.44,4.39,6.24,1.07,13.72,4.97,20.49,2.01,3.49,3.48,5.36,6.93,5.54,4.32,.23,5.61-2.65,6.09-6.29,1.33-10.02-.42-19.97-.44-29.96-.02-7.65,3.46-13.63,7.66-19.67,1.58-2.27,4-3.36,6.56-4.15,2.14-.66,5.42-.26,5.67-2.77,.28-2.85-2.57-4.57-5.14-5.86-3.69-1.84-7.51-1.17-10.34,1.21-10.27,8.66-14.48,19.76-13.28,32.12,.39,4.04-1.08,3.8-3.74,3.9Z" style="fill:none;"/><path d="M311.05,213.33c-.47-5.8-.74-11.63-1.52-17.4-.24-1.78,.53-5.05-3.8-4.49-1.14,.15-1.71-.77-1.02-1.79,3.72-5.5,.46-11.05-.18-16.45-1.29-10.85-3.5-21.62-2.97-32.61,.05-1.05-.21-2.36,.38-3.1,1.45-1.82,1.8-5.01,5.66-4.29,3.39,.63,3.4,3.04,3.4,5.37,.03,11.49,1.26,22.82,4.56,33.97,1,3.38,2.05,4.55,5.79,2.49,2.63-1.45,5.61-2.63,8.6-3.26,10.62-2.26,20.12,3.38,23.55,12.79,3.59,9.88,.1,17.74-7.09,24.86-4.73,4.68-9.67,9.18-14.53,13.75-.68,.64-1.55,1.9-2.03,1.79-5.58-1.27-11.55,1.05-16.72-.79-3.71-1.32-2-5.66-2.3-8.72-.07-.7-.01-1.41-.01-2.12,.07,0,.15,0,.22-.01Zm12.14,2.07c5.06-6.8,15-6.5,18.15-14.69,2.15-5.58,2.84-13.39-1.3-16.82-4.92-4.08-10.73-2.95-16.55-1.47-3.49,.89-4.75,2.61-4.28,5.75,1.3,8.65,2.53,17.3,3.97,27.23Z" style="fill:#dc1f26;"/><path d="M249.91,204.01c1.53-15.29,7.48-28.26,23.46-35.77,3.16-1.49,7.79-3.92,9.96-.6,2.4,3.68-2.15,6.61-5.47,8.05-9.79,4.24-13.06,11.4-12.77,20.56,.06,1.75-.45,3.92,1.88,4.53,2.14,.56,3.43-1.06,4.52-2.65,3.05-4.47,6.01-9.02,9.39-13.29,3.58-4.54,6.64-4.55,9.44,.44,5.62,10.03,10.85,20.25,15.79,30.58,2.1,4.4-.3,7.74-5.54,9.38-5.13,1.6-5.83-2.19-7.18-4.96-2.27-4.65-4.16-9.46-6.55-14.06-2.17-4.2-4.37-4.24-7.46-.58-3.45,4.09-7.37,7.74-12.34,10.37-7.41,3.91-13.12,1.98-15.59-5.31-.74-2.18-1.76-4.32-1.53-6.68Z" style="fill:#dc1f26;"/><path d="M357.47,204.08c-1.76-5.24-.47-11.15,2.36-16.93,2.55-5.22,14.12-11.08,20.32-10.15,9.45,1.43,16.01,7.61,16.5,15.64,.3,5,.55,9.97,.38,15.03-.35,10.5-13.98,18.8-23.08,18.14-9.68-.7-17.26-9.96-16.48-21.73Zm12.53-3.25c-.83,4.69,1.13,9.23,2.42,13.78,.87,3.08,3.26,5.74,7.41,5.7,4.22-.04,5.36-3.33,6.19-6.03,2.28-7.34,3.92-14.53,1.93-22.54-1.24-4.97-4.32-5.58-7.93-6.28-4.09-.8-7.11,.76-8.2,4.85-.91,3.42-2.1,6.77-1.82,10.53Z" style="fill:#dc1f26;"/><path d="M407.43,193.06c2.66-.11,4.13,.14,3.74-3.9-1.2-12.36,3.01-23.46,13.28-32.12,2.83-2.38,6.65-3.05,10.34-1.21,2.57,1.28,5.43,3.01,5.14,5.86-.25,2.51-3.53,2.11-5.67,2.77-2.56,.79-4.98,1.88-6.56,4.15-4.2,6.04-7.67,12.02-7.66,19.67,.02,9.99,1.77,19.94,.44,29.96-.48,3.63-1.77,6.52-6.09,6.29-3.45-.18-4.92-2.05-6.93-5.54-3.9-6.77-.58-14.25-4.97-20.49-1.64-2.33,1.5-5.64,4.93-5.44Z" style="fill:#dc1f26;"/></g><path d="M219.25,115.23c-.75,.75-5.61-6.27-13.38-6.83-7.3-.47-8.05,5.33-18.72,9.36-12.73,4.77-21.24,0-34.06,.75-.37,0-.47-6.27-.47-8.7,.09-2.25-.19-2.62-.09-5.15,0-2.06,.09-3.18,.47-4.02,.19-.47,.75-1.5,3.74-3.56,1.4-.94,2.99-2.06,5.43-3.09,2.62-1.12,4.68-1.59,7.21-2.06,1.68-.37,4.59-1.03,8.42-1.12,1.87-.09,5.15-.19,9.36,.56,2.15,.47,5.15,1.22,8.52,2.62,2.71,1.22,5.99,2.9,10.39,6.46,7.77,6.36,13.85,14.04,13.19,14.79Z" style="fill:#ebe311;"/><ellipse cx="170.84" cy="101.16" rx="12.84" ry="9.39" transform="translate(-21.5 150.4) rotate(-44.99)" style="fill:#006bab;"/><ellipse cx="168.97" cy="103.98" rx="9.16" ry="6.6" transform="translate(-11.93 185.44) rotate(-55.85)" style="fill:#fff;"/><path d="M162.16,106.44c2.18-1.4,4.38-2.38,5.77-3.94,.51-.57-.89-2.53-1.49-3.81,1.64-.82,5.14-2.08,8.06,1.74,1.83,2.39-1.31,7.32-5.2,8.78-3.77,1.42-5.97,.34-7.15-2.76Z"/><path d="M247.82,40.3c2.06-.92,8.6-6.32,10.07-7.94,2.89-1.78,5.79-3.56,8.68-5.33l9.75-4.75,8.54-3.3,10.26-3.12,10.85-3.34-8.35-4.71-12.95-3.44-15.99-1.28-16.16,.54-13.74,2.04-6.8,1.55c-2.8,.47-6.61,1.4-10.78,3.37-3.69,1.75-15.15,7.17-15.33,13.6-.33,12.03,39.16,17.36,41.95,16.12Z" style="fill:#008c49; stroke:#008c49; stroke-miterlimit:10; stroke-width:.13px;"/></g><g><circle cx="457.83" cy="237.11" r="17.74" style="fill:none; stroke:#ed1c24; stroke-miterlimit:10; stroke-width:2.83px;"/><path d="M450.25,247.86v-21.5h3.03v21.5h-3.03Zm2.82-8.17v-2.88h4.57c1.2,0,2.14-.32,2.81-.95,.67-.63,1.01-1.53,1.01-2.68,0-1.26-.34-2.23-1.01-2.91-.67-.68-1.61-1.02-2.81-1.02h-4.51l-.36-2.88h4.88c2.23,0,3.95,.56,5.17,1.7s1.82,2.73,1.82,4.81-.61,3.83-1.82,5.03c-1.22,1.19-2.94,1.79-5.17,1.79h-4.57Zm8.72,8.17l-4.81-10.11h3.33l5.12,10.11h-3.63Z" style="fill:#ed1c24;"/></g></svg>