<?xml version="1.0" encoding="utf-8"?>
<!-- Generator: Adobe Illustrator 23.0.2, SVG Export Plug-In . SVG Version: 6.00 Build 0)  -->
<svg version="1.1" id="Layer_1" xmlns="http://www.w3.org/2000/svg" xmlns:xlink="http://www.w3.org/1999/xlink" x="0px" y="0px"
	 viewBox="0 0 260 260" style="enable-background:new 0 0 260 260;" xml:space="preserve">
<style type="text/css">
	.st0{fill:none;}
	.st1{fill:#231F20;}
	.st2{fill:#6CB036;stroke:#6CB036;stroke-width:1.102500e-02;stroke-miterlimit:10;}
	.st3{fill:#292728;}
	.st4{fill:#FFFFFF;}
	.st5{fill:#000001;}
	.st6{fill:#231F20;stroke:#231F20;stroke-width:1.212750e-02;stroke-miterlimit:10;}
	.st7{fill:#0069AD;}
</style>
<path class="st0" d="M17.1,116.7c-0.9-1.4-1.1-2.6-1.1-3.9c0-3.7-0.5-7.4-0.4-11.1c0.1-9.7-0.2-19.3-0.3-29c0-1,0-1.8-1.2-2.3
	c-3.1-1.3-8.9,1.4-9.7,4.4C3,79.7,4,84.7,4.4,89.6c0.9,11.4,1.9,22.8,3,34.1c0.4,3.8,1.1,7.6,1.8,11.4c0.4,2.3,2.1,3.4,4.7,3.5
	c2.6,0.1,4.3-0.8,4.9-3.2c0.3-1.2,0.4-2.4,1-3.5c4.3-8,5.9-16.8,9.1-25c0.3-0.8,0.5-2,1.7-2.1c1.4-0.1,1.7,1,2.1,2
	c2.5,5.4,5.1,10.8,7.3,16.3c0.8,1.9,1.7,4.3,4.4,4.5c2.5,0.1,3.9-1.6,5-3.8c1.7-3.4,4-6.5,6.1-9.7c0.5-0.8,0.9-1.8,2.2-1.5
	c1,0.2,1.2,1.1,1.5,1.9c2,5,4,10.1,6.1,15c0.6,1.5,1.3,3.7,3.7,3.2c2.4-0.4,4.3-1.9,4.3-4.4c0-1-0.3-2-0.5-3c-0.6-2.3-2-4.3-2.6-6.5
	c-1.4-5.8-4-11.4-5.4-17.2c-0.6-2.3-1.6-5-4.4-5.3c-2.6-0.2-3.8,2.6-5,4.5c-2.4,3.7-4.4,7.7-6.8,11.4c-0.6,0.9-0.9,2.7-2.6,2.3
	c-1.5-0.3-1.7-1.8-2.1-3c-2-6.4-3.3-12.9-6.7-19c-1.3-2.3-2.6-3.6-5.2-3.9c-2.6-0.2-4.5,1.1-5.8,3c-2,2.8-3.4,5.9-4.3,9.1
	C20.3,105.9,18.7,111.2,17.1,116.7z"/>
<path class="st0" d="M84.9,125.5c0.2-4.9-1.5-9.6-2.7-14.2c-0.4-1.7-1.5-2.9-3.9-2.3c-1.4,0.4-3.5,0-3,2.2
	c1.4,6.4,2.2,12.8,1.8,19.4c0,0.2,0,0.4,0.1,0.6c0.2,1.4,0.9,1.8,2.6,1.5C84.2,132.1,84.9,131.1,84.9,125.5z"/>
<path class="st0" d="M76.3,104.4c1.8,0.2,3.3-0.1,3.1-2.4c-0.1-2.1-0.6-3.5-3.5-3.4c-2.2,0.1-3.5,0.3-3.5,2.8
	C72.5,103.9,73.8,104.6,76.3,104.4z"/>
<path class="st1" d="M17.1,116.7c1.6-5.5,3.2-10.7,4.8-16c0.9-3.2,2.3-6.3,4.3-9.1c1.4-1.9,3.2-3.2,5.8-3c2.6,0.2,4,1.5,5.2,3.9
	c3.4,6.1,4.6,12.6,6.7,19c0.4,1.1,0.6,2.7,2.1,3c1.7,0.3,2-1.4,2.6-2.3c2.4-3.7,4.4-7.7,6.8-11.4c1.2-1.9,2.3-4.7,5-4.5
	c2.7,0.2,3.8,3,4.4,5.3c1.4,5.8,4,11.4,5.4,17.2c0.5,2.2,1.9,4.3,2.6,6.5c0.3,1,0.6,2,0.5,3c-0.1,2.5-2,4-4.3,4.4
	c-2.4,0.4-3-1.8-3.7-3.2c-2.2-5-4.1-10-6.1-15c-0.3-0.8-0.4-1.7-1.5-1.9c-1.3-0.3-1.7,0.8-2.2,1.5c-2.1,3.2-4.4,6.3-6.1,9.7
	c-1.1,2.2-2.4,3.9-5,3.8c-2.7-0.1-3.6-2.6-4.4-4.5c-2.2-5.5-4.8-10.9-7.3-16.3c-0.4-0.9-0.8-2.1-2.1-2c-1.1,0.1-1.3,1.3-1.7,2.1
	c-3.3,8.3-4.9,17-9.1,25c-0.6,1.1-0.7,2.3-1,3.5c-0.6,2.4-2.2,3.3-4.9,3.2c-2.6-0.1-4.3-1.2-4.7-3.5c-0.7-3.8-1.4-7.6-1.8-11.4
	c-1.1-11.4-2.1-22.7-3-34.1C4,84.7,3,79.7,4.3,74.8c0.8-2.9,6.6-5.6,9.7-4.4c1.1,0.5,1.2,1.3,1.2,2.3c0.1,9.7,0.4,19.3,0.3,29
	c0,3.7,0.4,7.4,0.4,11.1C15.9,114.1,16.1,115.3,17.1,116.7z"/>
<path class="st1" d="M84.9,125.5c0.1,5.6-0.7,6.6-5.1,7.2c-1.6,0.2-2.3-0.2-2.6-1.5c0-0.2-0.1-0.4-0.1-0.6c0.4-6.5-0.5-13-1.8-19.4
	c-0.5-2.2,1.6-1.8,3-2.2c2.4-0.7,3.4,0.6,3.9,2.3C83.4,115.9,85.1,120.6,84.9,125.5z"/>
<path class="st1" d="M76.3,104.4c-2.5,0.2-3.8-0.4-3.8-3c-0.1-2.5,1.3-2.7,3.5-2.8c2.8-0.1,3.3,1.4,3.5,3.4
	C79.5,104.2,78.1,104.5,76.3,104.4z"/>
<path class="st1" d="M140.4,101.4c0-0.2,0-0.4,0.1-0.6c0.2-0.4,0.5-0.7,0.7-0.8c0.2-0.1,0.5-0.3,0.9-0.4c0.1,0,0.6-0.3,1.3-0.2
	c2.3,0.2,3.8,0.9,3.7,3.3c-0.1,1.7-0.6,2.8-2.6,2.8c-2.1,0-4.3,0.1-3.9-2.8c0-0.1-0.2-0.4-0.2-0.8
	C140.3,101.7,140.4,101.5,140.4,101.4z"/>
<path class="st0" d="M184.6,114.8c-1.9-2.9-1.9-2.9-1-5.7c0.4-1.1,0-2.2-0.9-2.7c-2.1-1.3-6,0.7-6.3,3c-0.9,6.3,1.2,12,4,17.6
	c0.4,0.8,1.1,1.5,1.9,2.1c2.5,1.9,4.4,1.2,4.9-1.7c0.2-1.3,0.2-2.6,0.4-3.9c0.4-3.6,0.7-7.3,3.3-10.3c1.1-1.3,2.5-2.1,4.3-1.8
	c1.7,0.3,2.5,1.4,2.9,2.9c1.2,4.1,2.6,8.1,4.1,12.2c0.5,1.4,0.9,3.1,3.2,3c4.3-0.2,7.2-3.4,5.9-7c-1.8-5.1-4.6-9.7-8.2-14.1
	c-4.6-5.6-14-2.6-16,2.6C186.5,112.4,186.1,113.9,184.6,114.8z"/>
<path class="st0" d="M212.9,115.4c-1.1,5.7,2.3,9.7,8.2,12.1c4.2,1.7,8.7,1.7,12.9-0.2c1.2-0.5,2.2-1.5,2-2.5
	c-0.2-1.1-1.7-0.5-2.7-0.6c-0.9-0.1-1.8,0-2.7-0.1c-4.5-0.3-8.1-1.9-10.3-5.7c-0.8-1.3-1-2.6-0.4-3.8c0.7-1.4,2.2-0.3,3.3-0.3
	c1.2,0,2.5,0.2,3.7,0.1c4.2-0.2,6.1-1.8,6.4-5.6c0.1-0.7,0.2-1.4,0.3-2.1c0.5-3.4-2.6-8.2-5.8-9.2c-4.2-1.2-8.8,0.8-11.1,4.3
	C214.1,105.9,212.8,110.2,212.9,115.4z"/>
<path class="st0" d="M175.2,117.6c0.2-3.3-0.7-5.5-1.6-7.7c-1.7-3.7-4.7-6.4-9.3-6.4c-4.3,0-8.3,1.4-10.3,5.3
	c-3,5.9-2.9,11.9,0.1,17.8c2.1,4.2,6.6,5.8,11.5,4.4C171.9,129.2,174.9,124.6,175.2,117.6z"/>
<path class="st0" d="M250,120c-0.2-2.2-0.6-5.3-2.4-8c-2.7-4.2-4.5-8.8-6.7-13.2c-1.7-3.5-1.9-7,2-9.9c1.9-1.4,1.6-2.7-0.8-3.6
	c-3.1-1.1-6.2-0.1-7.2,2.9c-2,5.8-2,11.7,2,16.9c2.2,2.9,3.7,6.2,6.2,9c3.2,3.7,0.5,12.4-4,15.1c-1.1,0.6-2.2,1.3-3.3,1.9
	c-0.6,0.3-1.8,0.2-1.5,1.3c0.2,0.8,1.2,0.7,2,0.8C241.9,133.9,250.1,127.9,250,120z"/>
<path class="st1" d="M184.6,114.8c1.6-0.9,2-2.4,2.5-3.8c2-5.2,11.5-8.2,16-2.6c3.6,4.4,6.3,9,8.2,14.1c1.3,3.6-1.6,6.7-5.9,7
	c-2.2,0.1-2.7-1.6-3.2-3c-1.4-4-2.8-8.1-4.1-12.2c-0.5-1.5-1.3-2.6-2.9-2.9c-1.8-0.4-3.2,0.4-4.3,1.8c-2.6,3.1-2.9,6.7-3.3,10.3
	c-0.2,1.3-0.1,2.6-0.4,3.9c-0.5,2.9-2.4,3.6-4.9,1.7c-0.8-0.6-1.5-1.3-1.9-2.1c-2.9-5.6-4.9-11.3-4-17.6c0.3-2.4,4.2-4.3,6.3-3
	c0.9,0.5,1.2,1.6,0.9,2.7C182.6,111.8,182.7,111.9,184.6,114.8z"/>
<path class="st1" d="M212.9,115.4c-0.1-5.2,1.2-9.5,3.9-13.5c2.3-3.5,6.9-5.5,11.1-4.3c3.2,0.9,6.3,5.8,5.8,9.2
	c-0.1,0.7-0.3,1.4-0.3,2.1c-0.3,3.8-2.1,5.4-6.4,5.6c-1.2,0-2.5-0.1-3.7-0.1c-1.1,0-2.6-1.2-3.3,0.3c-0.6,1.2-0.4,2.5,0.4,3.8
	c2.2,3.8,5.8,5.4,10.3,5.7c0.9,0.1,1.8,0,2.7,0.1c0.9,0.1,2.4-0.4,2.7,0.6c0.2,1-0.8,2-2,2.5c-4.3,1.9-8.7,2-12.9,0.2
	C215.2,125.1,211.7,121.1,212.9,115.4z M227.7,107.2c0-2.7-1.6-5.4-3.2-5.5c-1.6-0.1-4.8,3.9-4.8,5.8c0,2.6,2.3,2.3,4.1,2.4
	C225.9,110.1,227.9,109.8,227.7,107.2z"/>
<path class="st1" d="M175.2,117.6c-0.3,7-3.3,11.7-9.6,13.5c-4.9,1.4-9.4-0.2-11.5-4.4c-3-5.9-3.1-11.9-0.1-17.8
	c2-3.8,6-5.2,10.3-5.3c4.6,0,7.7,2.7,9.3,6.4C174.6,112,175.4,114.3,175.2,117.6z M170.3,118.3c-0.2-1.8-0.4-3.4-0.6-5
	c-0.5-2.7-3.1-5.2-5.4-5c-3.4,0.3-4.5,2.5-4.6,5.1c-0.2,3.4-0.9,6.8-0.2,10.1c0.5,2.2,2.1,3.9,4.5,4.5c2,0.5,2.9-1.1,4.1-2.5
	C169.9,123.3,169.6,120.6,170.3,118.3z"/>
<path class="st1" d="M250,120c0.1,7.9-8.2,13.9-13.8,13.2c-0.8-0.1-1.8,0-2-0.8c-0.3-1,0.9-1,1.5-1.3c1.1-0.6,2.2-1.3,3.3-1.9
	c4.4-2.6,7.2-11.3,4-15.1c-2.5-2.9-3.9-6.1-6.2-9c-4-5.2-3.9-11.1-2-16.9c1-3,4.1-4,7.2-2.9c2.4,0.9,2.7,2.3,0.8,3.6
	c-3.9,2.8-3.7,6.4-2,9.9c2.2,4.4,4,9,6.7,13.2C249.4,114.7,249.8,117.9,250,120z"/>
<path class="st1" d="M149.6,126.2c0,5.2-1,6.2-5.3,6.7c-2.3,0.2-3.1-0.8-2.9-2.6c0.4-5-0.1-10-1-15c-0.3-1.9-2.4-4.8,1.7-6.1
	c2.6-0.9,3.7,0,4.5,2.1C148.5,116.2,148.8,121.5,149.6,126.2z"/>
<path class="st0" d="M182.3,185.1c0,0-0.1,0-0.1,0c0,0.4,0,0.8,0,1.2c0.2,1.8-0.8,4.3,1.3,5c3,1.1,6.4-0.3,9.6,0.5
	c0.3,0.1,0.8-0.7,1.2-1c2.8-2.6,5.6-5.2,8.3-7.9c4.1-4.1,6.1-8.6,4.1-14.3c-2-5.4-7.4-8.6-13.5-7.3c-1.7,0.4-3.4,1-4.9,1.9
	c-2.1,1.2-2.8,0.5-3.3-1.4c-1.9-6.4-2.6-12.9-2.6-19.5c0-1.3,0-2.7-2-3.1c-2.2-0.4-2.4,1.4-3.3,2.5c-0.3,0.4-0.2,1.2-0.2,1.8
	c-0.3,6.3,1,12.5,1.7,18.7c0.4,3.1,2.2,6.3,0.1,9.4c-0.4,0.6-0.1,1.1,0.6,1c2.5-0.3,2,1.6,2.2,2.6
	C181.9,178.4,182,181.8,182.3,185.1z"/>
<path class="st0" d="M147.2,179.7c-0.1,1.4,0.5,2.6,0.9,3.8c1.4,4.2,4.7,5.3,9,3c2.9-1.5,5.1-3.6,7.1-6c1.8-2.1,3-2.1,4.3,0.3
	c1.4,2.6,2.5,5.4,3.8,8.1c0.8,1.6,1.2,3.8,4.1,2.8c3-0.9,4.4-2.9,3.2-5.4c-2.8-5.9-5.8-11.8-9.1-17.6c-1.6-2.9-3.4-2.9-5.4-0.3
	c-1.9,2.5-3.6,5.1-5.4,7.6c-0.6,0.9-1.4,1.8-2.6,1.5c-1.3-0.4-1-1.6-1.1-2.6c-0.2-5.3,1.7-9.4,7.3-11.8c1.9-0.8,4.5-2.5,3.1-4.6
	c-1.2-1.9-3.9-0.5-5.7,0.3C151.5,163.5,148.1,171,147.2,179.7z"/>
<path class="st0" d="M209,179.8c-0.5,6.8,3.9,12.1,9.5,12.5c5.2,0.4,13.1-4.4,13.3-10.4c0.1-2.9,0-5.8-0.2-8.6c-0.3-4.6-4-8.2-9.5-9
	c-3.6-0.5-10.2,2.8-11.7,5.8C208.7,173.4,208,176.8,209,179.8z"/>
<path class="st0" d="M237.7,173.5c-2-0.1-3.8,1.8-2.8,3.1c2.5,3.6,0.6,7.9,2.9,11.8c1.2,2,2,3.1,4,3.2c2.5,0.1,3.2-1.5,3.5-3.6
	c0.8-5.8-0.2-11.5-0.3-17.2c0-4.4,2-7.8,4.4-11.3c0.9-1.3,2.3-1.9,3.8-2.4c1.2-0.4,3.1-0.1,3.3-1.6c0.2-1.6-1.5-2.6-3-3.4
	c-2.1-1.1-4.3-0.7-5.9,0.7c-5.9,5-8.3,11.4-7.6,18.5C240,173.5,239.2,173.4,237.7,173.5z"/>
<path class="st1" d="M182.3,185.1c-0.3-3.3-0.4-6.7-0.9-10c-0.1-1,0.3-2.9-2.2-2.6c-0.7,0.1-1-0.4-0.6-1c2.1-3.2,0.3-6.3-0.1-9.4
	c-0.7-6.2-2-12.4-1.7-18.7c0-0.6-0.1-1.4,0.2-1.8c0.8-1,1-2.9,3.3-2.5c1.9,0.4,2,1.7,2,3.1c0,6.6,0.7,13.1,2.6,19.5
	c0.6,1.9,1.2,2.6,3.3,1.4c1.5-0.8,3.2-1.5,4.9-1.9c6.1-1.3,11.6,1.9,13.5,7.3c2.1,5.7,0.1,10.2-4.1,14.3c-2.7,2.7-5.6,5.3-8.3,7.9
	c-0.4,0.4-0.9,1.1-1.2,1c-3.2-0.7-6.6,0.6-9.6-0.5c-2.1-0.8-1.1-3.2-1.3-5c0-0.4,0-0.8,0-1.2C182.2,185.1,182.3,185.1,182.3,185.1z
	 M189.3,186.3c2.9-3.9,8.6-3.7,10.4-8.4c1.2-3.2,1.6-7.7-0.7-9.7c-2.8-2.3-6.2-1.7-9.5-0.8c-2,0.5-2.7,1.5-2.5,3.3
	C187.8,175.6,188.5,180.6,189.3,186.3z"/>
<path class="st1" d="M147.2,179.7c0.9-8.8,4.3-16.2,13.5-20.5c1.8-0.9,4.5-2.2,5.7-0.3c1.4,2.1-1.2,3.8-3.1,4.6
	c-5.6,2.4-7.5,6.5-7.3,11.8c0,1-0.3,2.3,1.1,2.6c1.2,0.3,2-0.6,2.6-1.5c1.8-2.6,3.5-5.2,5.4-7.6c2.1-2.6,3.8-2.6,5.4,0.3
	c3.2,5.8,6.2,11.6,9.1,17.6c1.2,2.5-0.2,4.4-3.2,5.4c-2.9,0.9-3.3-1.3-4.1-2.8c-1.3-2.7-2.4-5.4-3.8-8.1c-1.2-2.4-2.5-2.4-4.3-0.3
	c-2,2.3-4.2,4.4-7.1,6c-4.3,2.2-7.5,1.1-9-3C147.7,182.3,147.1,181.1,147.2,179.7z"/>
<path class="st1" d="M209,179.8c-1-3-0.3-6.4,1.4-9.7c1.5-3,8.1-6.4,11.7-5.8c5.4,0.8,9.2,4.4,9.5,9c0.2,2.9,0.3,5.7,0.2,8.6
	c-0.2,6-8,10.8-13.3,10.4C212.9,191.9,208.5,186.5,209,179.8z M216.2,177.9c-0.5,2.7,0.6,5.3,1.4,7.9c0.5,1.8,1.9,3.3,4.3,3.3
	c2.4,0,3.1-1.9,3.6-3.5c1.3-4.2,2.3-8.3,1.1-12.9c-0.7-2.9-2.5-3.2-4.6-3.6c-2.3-0.5-4.1,0.4-4.7,2.8
	C216.7,173.8,216,175.8,216.2,177.9z"/>
<path class="st1" d="M237.7,173.5c1.5-0.1,2.4,0.1,2.1-2.2c-0.7-7.1,1.7-13.5,7.6-18.5c1.6-1.4,3.8-1.8,5.9-0.7
	c1.5,0.7,3.1,1.7,3,3.4c-0.1,1.4-2,1.2-3.3,1.6c-1.5,0.5-2.9,1.1-3.8,2.4c-2.4,3.5-4.4,6.9-4.4,11.3c0,5.7,1,11.5,0.3,17.2
	c-0.3,2.1-1,3.7-3.5,3.6c-2-0.1-2.8-1.2-4-3.2c-2.2-3.9-0.3-8.2-2.9-11.8C233.9,175.2,235.7,173.3,237.7,173.5z"/>
<polygon class="st2" points="89.7,130.2 89.7,130.2 89.7,130.2 89.7,130.2 89.7,130.2 89.7,130.2 89.7,130.2 89.7,130.2 89.7,130.2 
	"/>
<g>
	<g>
		<g>
			<g>
				<g>
					<path d="M132.7,125.4c0,0,4.3,8.7,7.4,12.9c9.3,12.7,6.8,28.2-2.5,39.8c-7.7,9.6-18.4,13.7-31.1,14.5c-1.1,0.1-2.3-0.4-3.4-0.5
						c-0.1-0.3-0.1-0.6-0.2-0.9c1-0.4,1.9-1,2.9-1.3c4.8-1.4,9-3.5,10.3-8.3c1.3-4.9-0.6-9-4.4-12.8c-4.7-4.7-9.9-9.3-13.5-14.7
						c-7.6-11.5-10.7-24.5-9.2-37.7c2.7-23.1,15-39.3,38.1-50.4c18.3-8.8,41.9-7.5,59.3,3c-12.8,0.4-23.6,4.2-32.7,11.3
						c-11.1,8.6-17.9,19.2-20.4,32.2c-0.2,1.3-0.3,2.6-0.7,3.9C131.8,119.7,131.9,122.7,132.7,125.4 M128.9,135.2
						c-2.4-1.1-4.7-2.4-7.1-3.4c-8.1-3.1-16.3-1.9-21,3.2c-3.3,3.6-5.5,12.4,0.1,19c3.6,4.3,7.7,8.1,11.3,12.4
						c2.3,2.8,4.8,5.7,6.1,8.9c2,5,0.6,9.6-4.2,13.2c1.1-0.1,2-0.3,2.7-0.6c10.7-4.2,18-11.2,21-21.4c2.9-9.8,2.3-19.3-5.4-27.5
						c-1.2-1.3-2.4-2.6-3.6-3.9c1.7,1.3,3.6,2.3,5,3.8c9.7,10.5,8.4,27.7-0.9,39.1c-4.7,5.8-11.2,9.5-18.7,11.9
						c0.6,0.1,1.1,0.1,1.7,0c0.9-0.2,1.7-0.4,2.6-0.7c10.6-3.3,18.1-9.6,22.5-18.8c4.7-9.8,5.5-19.9-0.9-29.5
						c-4.6-6.8-9.5-13.6-14.8-19.9c-8.1-9.6-20.8-11.3-32.1-4.9c-0.9,0.5-1.7,1.9-1.7,2.8c0,3.9-0.1,8,0.6,11.8
						c0.9,5,2.4,9.9,3.6,14.8c1-0.3,1.1-0.4,1.1-0.4c0-0.7,0.1-1.4,0.1-2.1c0.2-6.1,3.4-10.2,9.5-12.8
						C113.7,127.2,125.9,130.8,128.9,135.2z M179.9,67.9c-8.7-8-36.8-7.8-53.5,0.3c-18,8.8-36.2,31.4-33.7,43.9
						c5.8-3.6,13-3.3,19.8-2.3c6.8,1.1,10.7,4.3,14.5,9.6C132.7,91.7,148.6,73.7,179.9,67.9z M129.9,122.6c0.4-0.2,0.7-0.3,1.1-0.5
						c-0.4-10.8,4.1-20,9.1-29.5c-6.1,8.5-10.9,17-11.7,27.3C128.3,120.7,129.4,121.7,129.9,122.6z"/>
					<path class="st3" d="M126.7,119.1c-3.8-5.2-7.6-8.3-14.3-9.3c-6.8-1.1-14-1.3-19.8,2.3c-2.5-12.5,15.7-35.1,33.7-43.9
						c16.7-8.2,44.8-8.4,53.5-0.3c-31.2,5.9-47.2,23.9-52.9,51.6"/>
					<path class="st4" d="M126.9,119.4c-0.1-0.1-0.2-0.2-0.2-0.3"/>
					<path class="st5" d="M128.8,135.1c1.2,1.3,2.4,2.6,3.6,3.9c7.7,8.3,8.3,17.8,5.4,27.5c-3,10.2-10.3,17.3-21,21.4
						c-0.8,0.3-1.6,0.5-2.7,0.6c4.8-3.6,6.2-8.2,4.2-13.2c-1.3-3.2-3.7-6.1-6.1-8.9c-3.6-4.3-7.7-8.1-11.3-12.4
						c-5.6-6.7-3.4-15.4-0.1-19c4.7-5.1,12.9-6.3,21-3.2c2.4,1,4.7,2.2,7.1,3.4L128.8,135.1z"/>
					<path class="st4" d="M128.9,135.2c-3-4.4-15.2-8-22.6-4.9c-6.2,2.5-9.3,6.7-9.5,12.8c0,0.7-0.1,1.4-0.1,2.1
						c0,0.1-0.1,0.2-1.1,0.4c-1.2-4.9-2.8-9.8-3.6-14.8c-0.1-0.8-0.2-1.8-0.2-1.8c-0.1-0.7-0.2-1.3-0.2-1.5
						c-0.1-0.8-0.2-1.9-0.2-2.1c0,0-0.2-2.2,0-6.4c0,0,0,0,0,0c0,0,0-0.8,0.5-1.6c0.4-0.7,1-1.1,1.2-1.3c4.4-2.9,10.3-3.5,10.3-3.5
						c2.2-0.2,6.4-0.6,11.2,1.1c1.8,0.6,3.2,1.3,4,1.8c0,0,3.6,2.1,6.6,5.6c0.5,0.5,1,1.2,1,1.2c0.5,0.6,0.8,1,0.9,1.2
						c5.2,6.5,9.5,11.4,12.9,17.5c2.1,3.8,3.4,6.1,4.1,9.7c1.3,6.6-0.1,13.2-3.2,19.8c-4.4,9.2-11.9,15.5-22.5,18.8
						c-0.8,0.3-1.7,0.5-2.6,0.7c-0.5,0.1-1.1,0.1-1.7,0c7.5-2.4,14-6.1,18.7-11.9c9.3-11.4,10.6-28.6,0.9-39.1
						C132.4,137.4,130.4,136.3,128.9,135.2C128.8,135.1,121.9,127.9,128.9,135.2z M96.8,121.4c0.7,1.8,1.9,2.4,4.1,1.6
						c2.2-0.8,4-3.7,3-5c-1.7-2.2-3.7-1.5-4.6-1c0.3,0.7,1.1,1.9,0.9,2.2C99.3,120,98.1,120.6,96.8,121.4z"/>
					<path class="st4" d="M131,122.1c-0.4,0.2-0.7,0.3-1.1,0.5"/>
					<path class="st1" d="M129.9,122.6c0,0-1.6-1.8-1.5-2.7c0.7-10.2,5.5-18.7,11.7-27.3c-5,9.5-9.5,18.7-9.1,29.5"/>
				</g>
				<path class="st4" d="M105.8,122.5"/>
			</g>
			<path class="st3" d="M129.6,126.4c-0.3,0.3-3.1-3.6-7.7-3.9c-0.7-0.1-1.3,0.1-2,0.2c-3.7,0.6-5.5,2.3-8.5,3.9
				c-0.7,0.3-4.4,2.3-9.3,2.8c-2.7,0.3-4.8,0.5-7-0.7c-2.8-1.6-4-4.6-4-5.3c0,0,0-0.4,0-0.8c0-0.6,0-0.9,0-1.2
				c0-1.1-0.1-1.7,0.1-2.4c0.1-0.4,0.1-0.8,0.4-1.3c0.3-0.5,0.6-0.8,0.9-1.1c0.6-0.5,1.7-1.4,3.9-2.2c0.4-0.2,0.9-0.3,1.7-0.6
				c1.1-0.4,1.9-0.6,2.7-0.8c2.2-0.5,4-0.6,4.8-0.6c1,0,1.8,0,2.5,0.1c0.9,0.1,1.8,0.1,3,0.3c1.5,0.3,2.5,0.6,3.4,0.9
				c0.7,0.3,2.1,0.7,3.5,1.5c1.9,1,3.3,2.1,4.6,3.3C126.8,122.1,129.9,126.2,129.6,126.4z"/>
			
				<ellipse transform="matrix(0.649 -0.7608 0.7608 0.649 -54.6358 119.2654)" class="st1" cx="101.9" cy="118.8" rx="7.3" ry="5.3"/>
		</g>
		<ellipse transform="matrix(0.649 -0.7608 0.7608 0.649 -55.8856 118.9488)" class="st4" cx="101" cy="120" rx="5.2" ry="3.8"/>
		<path d="M96.8,121.4c1.3-0.8,2.5-1.4,3.3-2.3c0.3-0.3-0.5-1.5-0.9-2.2c0.9-0.5,2.9-1.2,4.6,1c1,1.4-0.8,4.2-3,5
			C98.7,123.8,97.5,123.2,96.8,121.4z"/>
	</g>
	<path class="st6" d="M146,83.4c1.2-0.5,4.9-3.6,5.8-4.6c1.7-1,3.3-2,5-3.1l5.6-2.7l4.9-1.9l5.9-1.8l6.2-1.9l-4.8-2.7l-7.4-2L158,62
		l-9.3,0.3l-7.9,1.2l-3.9,0.9c-1.6,0.3-3.8,0.8-6.2,1.9c-2.1,1-8.7,4.1-8.8,7.8C121.7,81.1,144.4,84.1,146,83.4z"/>
</g>
<path class="st7" d="M148.8,81.8"/>
</svg>
